<?xml version="1.0" standalone="no"?>
<!DOCTYPE svg PUBLIC "-//W3C//DTD SVG 20010904//EN"
 "http://www.w3.org/TR/2001/REC-SVG-20010904/DTD/svg10.dtd">
<svg version="1.0" xmlns="http://www.w3.org/2000/svg"
 width="800.000000pt" height="800.000000pt" viewBox="0 0 800.000000 800.000000"
 preserveAspectRatio="xMidYMid meet">

<g transform="translate(0.000000,800.000000) scale(0.100000,-0.100000)"
fill="#000000" stroke="none">
<path d="M2680 6964 c-25 -2 -198 -8 -385 -14 -488 -15 -951 -40 -1119 -61
-285 -36 -544 -170 -687 -356 -100 -128 -186 -316 -228 -498 -12 -49 -24 -99
-26 -110 -11 -44 -45 -307 -54 -420 -51 -597 -68 -1322 -43 -1820 44 -890 79
-1133 213 -1484 94 -246 313 -444 595 -536 202 -66 306 -74 1629 -120 189 -7
1079 -23 1420 -26 330 -2 1844 32 1992 46 23 2 149 6 280 10 443 12 722 49
900 119 457 182 651 606 703 1531 50 893 43 1569 -21 2295 -37 421 -134 773
-266 964 -135 195 -358 325 -663 386 -197 40 -677 67 -1559 90 -332 9 -2555
11 -2681 4z m2150 -2829 c0 -685 -2 -1245 -4 -1245 -4 0 -581 315 -891 487
-49 27 -135 74 -190 103 -55 29 -161 87 -235 128 -74 42 -164 91 -200 110 -36
20 -126 69 -200 110 -74 41 -164 91 -200 110 -36 19 -125 68 -198 109 -72 40
-137 73 -143 73 -6 0 -9 6 -7 12 5 13 46 39 173 108 104 56 570 311 750 410
77 43 176 97 220 120 44 24 85 46 90 50 6 4 55 31 110 60 55 30 181 98 280
153 99 55 218 120 265 145 47 26 148 81 225 124 77 42 143 78 148 78 4 0 7
-560 7 -1245z"/>
</g>
</svg>
